# xmcd
# 
# Track frame offsets:
#     150
#     17196
#     26588
#     42241
# 
# Disc length: 850
# 
# Revision: 0
# Processed by: cddbd v1.5.2PL0 Copyright (c) Steve Scherf et al.
# Submitted via: fre:ac v1.0.17
# 
DISCID=29035004
DTITLE=Flor del Fango - LA chacarara
DYEAR=2000
DGENRE=Rock Latino
TTITLE0=La Chacarara
TTITLE1=El Toli
TTITLE2=Himno Zapatista
TTITLE3=Al Lado Del Rio
EXTD=
EXTT0=
EXTT1=
EXTT2=
EXTT3=
PLAYORDER=
